<svg width="25" height="25" fill="none" xmlns="http://www.w3.org/2000/svg"><path d="M10.117 12.268l.353-.353-.354-.354-4.308-4.308a.237.237 0 01-.078-.185c0-.075.021-.128.078-.185l1.19-1.189c.083-.083.126-.081.146-.08l.02.002h.019c.075 0 .128.021.184.078l4.309 4.308.353.354.354-.354 4.263-4.263a.237.237 0 01.185-.078v-.499.499c.075 0 .128.02.185.078l1.302 1.301c.083.084.08.126.079.147l-.002.019v.02a.237.237 0 01-.078.184l-4.263 4.264-.353.353.353.354 4.308 4.308c.057.057.078.11.078.185v.02l.002.018c.001.02.004.064-.08.147l-1.189 1.19a.237.237 0 01-.185.077.237.237 0 01-.185-.078l-4.308-4.308-.354-.354-.353.354-4.376 4.375a.236.236 0 01-.185.078h-.019l-.019.002c-.02.001-.063.004-.147-.08l-1.301-1.301a.237.237 0 01-.078-.185c0-.075.021-.128.078-.185l4.376-4.375z" fill="#01B3FF" stroke="#fff"/></svg>