<svg width="17" height="16" fill="none" xmlns="http://www.w3.org/2000/svg"><path d="M13.195 15.333a.94.94 0 00.53-.162.826.826 0 00.35-.878L12.982 9.76l3.709-3.061a.818.818 0 00.265-.904.894.894 0 00-.777-.585l-4.909-.42L9.331.517A.906.906 0 008.5 0a.907.907 0 00-.83.516L5.728 4.79l-4.907.42a.893.893 0 00-.778.584.818.818 0 00.265.904l3.709 3.06-1.094 4.534a.825.825 0 00.351.878c.293.2.685.216.993.041l4.232-2.38 4.232 2.381c.143.08.302.121.463.121zM8.5 11.806a.95.95 0 00-.463.12l-3.994 2.248 1.032-4.28a.82.82 0 00-.286-.828l-3.502-2.89L5.92 5.78a.9.9 0 00.751-.516L8.5 1.231l1.831 4.034a.897.897 0 00.749.513l4.634.396-3.502 2.89a.82.82 0 00-.286.83l1.031 4.28-3.994-2.248a.95.95 0 00-.463-.12zm2.809-6.933v.001-.001zM5.693 4.87z" fill="#FFAD06"/></svg>