<svg width="11" height="7" fill="none" xmlns="http://www.w3.org/2000/svg"><path d="M1.055 1.947h0a.315.315 0 01-.105-.234l.105.234zm0 0L5.258 5.95s0 0 0 0a.342.342 0 00.484 0s0 0 0 0l4.202-4.003a.316.316 0 00.106-.234.316.316 0 00-.106-.234s0 0 0 0l-.45-.43a.342.342 0 00-.484 0L5.5 4.394 1.99 1.05m-.935.897l.451-.897m0 0h0a.342.342 0 01.484 0m-.484 0l-.45.43m.45-.43l-.45.43m.934-.43l-.034.036.034-.036h0zm-.935.43a.315.315 0 00-.105.233l.105-.234z" fill="#fff" stroke="#fff" stroke-width=".1"/></svg>