<svg width="143" height="143" fill="none" xmlns="http://www.w3.org/2000/svg"><circle cx="71.5" cy="71.5" r="71.5" fill="#25A6DB"/><path d="M32.568 67.843c21.747-9.454 36.245-15.687 43.494-18.699 20.722-8.6 25.023-10.093 27.831-10.144.618-.01 1.993.143 2.891.867.746.61.955 1.437 1.06 2.016.093.58.222 1.9.117 2.93-1.119 11.772-5.979 40.337-8.45 53.522-1.037 5.579-3.1 7.449-5.093 7.632-4.335.398-7.622-2.857-11.818-5.601-6.561-4.296-10.267-6.969-16.642-11.16-7.366-4.843-2.587-7.506 1.608-11.856 1.096-1.139 20.186-18.464 20.547-20.036.047-.196.093-.93-.35-1.315-.43-.388-1.072-.255-1.538-.15-.664.149-11.142 7.067-31.467 20.754-2.972 2.04-5.664 3.035-8.089 2.983-2.657-.057-7.785-1.503-11.596-2.738-4.662-1.516-8.38-2.317-8.053-4.892.163-1.34 2.016-2.711 5.548-4.113z" fill="#fff"/></svg>