<svg width="114" height="29" fill="none" xmlns="http://www.w3.org/2000/svg"><path d="M21.13 28.94a3.801 3.801 0 01-2.868-1.304L7.606 14.177V25.14a3.803 3.803 0 01-7.606 0V4.034a3.803 3.803 0 016.67-2.5l10.657 13.46V4.013a3.804 3.804 0 017.606 0V25.14a3.806 3.806 0 01-3.802 3.802zM40.816.211c-1.728.014-3.44.326-5.062.925-.446.16-.876.338-1.3.538.005.249.04.496.105.736.147.727.419 1.423.802 2.057a6.654 6.654 0 003.248 2.745c.335.15.69.25 1.054.298.68.06 1.365-.053 2.042.035a7.717 7.717 0 011.848.483c.89.353 1.7.877 2.388 1.543a6.991 6.991 0 011.582 2.318 6.787 6.787 0 010 5.211 6.989 6.989 0 01-1.582 2.318 7.293 7.293 0 01-2.388 1.543 7.71 7.71 0 01-1.848.484c-.677.087-1.361-.025-2.042.035a3.79 3.79 0 00-1.054.297 6.662 6.662 0 00-3.248 2.745 6.454 6.454 0 00-.802 2.057c-.064.24-.1.487-.106.736.425.2.856.378 1.301.538 1.621.6 3.334.912 5.062.925A14.522 14.522 0 0055.53 14.495 14.521 14.521 0 0040.816.21z" fill="#fff"/><path d="M31.748 23.296l-3.092-3.785 9.36-7.322 3.091 3.785-9.36 7.322zM100.502.067c5.893 0 12.553 3.926 12.553 10.326v18.598a7.108 7.108 0 01-4.926-1.904 8.36 8.36 0 01-2.567-6.215v-8.845a4.927 4.927 0 00-4.054-4.52 7.86 7.86 0 00-7.167 1.377 7.255 7.255 0 00-2.448 5.645 6.997 6.997 0 002.085 4.986 7.214 7.214 0 002.368 1.562c.588.24 1.203.404 1.832.49.672.088 1.35-.026 2.026.035.361.048.713.15 1.045.301a6.637 6.637 0 014.017 4.862c.064.243.099.494.104.745-.421.202-.848.383-1.291.545a13.621 13.621 0 01-11.3-.625 14.794 14.794 0 01-8.272-11.792C83.867 7.166 90.672.067 100.502.067zm-26.926 20.41l.002-.022c.126-.44.218-.887.345-1.328.096-.267.234-.516.409-.74a5.06 5.06 0 00-.141-1.89c-.137-.413-.483-1.076-.734-1.643a9.697 9.697 0 01-.824-2.746c-.546.296-1.1.58-1.638.896a5.68 5.68 0 01-4.04.999c-1.142-.213-1.9-2.749-1.9-2.749l.005-6.82a4.944 4.944 0 00-.966-3.31 4.24 4.24 0 00-3.04-1.12 3.047 3.047 0 00-2.607 1.237 6.033 6.033 0 00-.91 3.61v19.81c-.083 1.154.25 2.3.938 3.23a4.196 4.196 0 003.014 1.095 3.382 3.382 0 002.488-1.106 4.346 4.346 0 001.083-3.169v-5.654l3.858-3.649 4.391 7.216c.04-.721.128-1.438.267-2.147z" fill="#fff"/><path d="M62.062 23.105a3.803 3.803 0 01-2.686-6.593l16.71-15.471a3.802 3.802 0 015.164 5.581L64.54 22.094a3.798 3.798 0 01-2.478 1.01z" fill="#fff"/><path d="M66.582 11.817a3.803 3.803 0 016.99-1.35l8.321 12.715a3.8 3.8 0 01-2.633 5.773 3.8 3.8 0 01-3.847-1.795L67.09 14.445a3.798 3.798 0 01-.508-2.628z" fill="#fff"/></svg>