<svg width="32" height="32" fill="none" xmlns="http://www.w3.org/2000/svg"><path d="M23.948 20.579a.423.423 0 00-.186 0h.186z" fill="#3ED182"/><g clip-path="url(#clip0_2297_4471)" fill="#3ED182"><path d="M26.363 23.636h-3.818a4.369 4.369 0 01-4.363-4.363 4.369 4.369 0 014.363-4.364h3.818a.545.545 0 00.546-.545v-1.637a2.177 2.177 0 00-2.008-2.164l-3.133-5.471a2.156 2.156 0 00-2.962-.798L8.068 10.546H6.182A2.184 2.184 0 004 12.727v13.091C4 27.021 4.978 28 6.182 28h18.545a2.184 2.184 0 002.182-2.182v-1.636a.545.545 0 00-.546-.546zM22.445 8.47l1.188 2.076h-4.754l3.566-2.076zm-12.209 2.076l9.12-5.31a1.07 1.07 0 011.465.397l.001.003-8.433 4.91h-2.153z"/><path d="M26.364 16h-3.818a3.276 3.276 0 00-3.273 3.273 3.276 3.276 0 003.273 3.273h3.818c.903 0 1.637-.734 1.637-1.637v-3.272c0-.903-.734-1.637-1.637-1.637zm-3.818 4.364a1.092 1.092 0 010-2.182 1.092 1.092 0 01.001 2.182z"/></g><defs><clipPath id="clip0_2297_4471"><path fill="#fff" transform="translate(4 4)" d="M0 0h24v24H0z"/></clipPath></defs></svg>