<svg width="32" height="32" fill="none" xmlns="http://www.w3.org/2000/svg"><path d="M23.948 20.579a.423.423 0 00-.186 0h.186zM20.38 10.312a.5.5 0 00.498-.499V2.806a.497.497 0 00-.715-.455l-.841.405-.848-.405a.493.493 0 00-.432 0l-.837.405-.836-.405a.505.505 0 00-.438 0l-.842.405-.836-.405a.505.505 0 00-.438 0l-.836.405-.837-.405a.51.51 0 00-.487.028.498.498 0 00-.233.427v7.007c0 .277.221.499.498.499h8.46z" fill="#3ED182"/><path d="M9.712 7.775C8.77 7.775 8 8.539 8 9.48v18.807C8 29.23 8.77 30 9.712 30h12.885c.947 0 1.712-.77 1.712-1.712V9.481c0-.942-.765-1.706-1.712-1.706h-.61v2.038c0 .887-.72 1.607-1.606 1.607h-8.448c-.886 0-1.606-.72-1.606-1.607V7.775h-.615zm3.202 19.316h-.859a.556.556 0 01-.554-.553c0-.31.25-.554.554-.554h.859c.304 0 .554.243.554.553 0 .305-.25.555-.554.555zm0-2.936h-.859a.552.552 0 01-.554-.553c0-.305.25-.555.554-.555h.859c.304 0 .554.25.554.555 0 .31-.25.553-.554.553zm0-2.93h-.859a.556.556 0 01-.554-.554c0-.305.25-.554.554-.554h.859c.304 0 .554.25.554.554 0 .305-.25.554-.554.554zm3.673 5.866h-.86a.556.556 0 01-.553-.553c0-.31.25-.554.554-.554h.859c.304 0 .553.243.553.553a.556.556 0 01-.553.555zm0-2.936h-.86a.552.552 0 01-.553-.553c0-.305.25-.555.554-.555h.859c.304 0 .553.25.553.555 0 .31-.249.553-.553.553zm0-2.93h-.86a.556.556 0 01-.553-.554c0-.305.25-.554.554-.554h.859a.555.555 0 010 1.108zm3.667 5.866H19.4a.552.552 0 01-.554-.553c0-.31.243-.554.554-.554h.853c.31 0 .554.243.554.553a.552.552 0 01-.554.555zm0-2.936H19.4a.549.549 0 01-.554-.553c0-.305.243-.555.554-.555h.853c.31 0 .554.25.554.555 0 .31-.244.553-.554.553zm0-2.93H19.4a.552.552 0 01-.554-.554c0-.305.243-.554.554-.554h.853c.31 0 .554.25.554.554a.552.552 0 01-.554.554zM10.42 13.17c0-.304.244-.554.554-.554H21.34c.304 0 .553.25.553.554v4.57a.556.556 0 01-.553.555H10.975a.552.552 0 01-.554-.555v-4.57z" fill="#3ED182"/></svg>