<svg width="30" height="30" fill="none" xmlns="http://www.w3.org/2000/svg"><path fill-rule="evenodd" clip-rule="evenodd" d="M25.387 2.306L9.781.937C5.219 3.325 3.14 13.54 3.14 19.855v.269l13.93 4.274c.267-6.353 3.652-18.258 8.316-22.092zM12.127 13.7a.467.467 0 11.217-.908l.271.065a.467.467 0 11-.216.908l-.271-.065zm-1.286-.364a.467.467 0 01.216-.908l.272.065a.467.467 0 11-.216.908l-.272-.065zm-1.287-.363a.467.467 0 11.216-.909l.272.066a.467.467 0 01-.216.908l-.272-.065zm3.333-.402a.467.467 0 01.216-.908l.272.065a.467.467 0 11-.216.908l-.272-.065zm-1.286-.364a.467.467 0 11.216-.908l.271.065a.467.467 0 01-.216.909l-.271-.066zm-1.287-.363a.467.467 0 01.216-.908l.272.065a.467.467 0 11-.217.908l-.271-.065zm16.55-9.407V20.05l-8.862 4.584c.265-7.492 4.447-19.887 8.862-22.197zm0 18.668v3.39l-8.876 4.569V25.66l8.876-4.556zm-9.813 4.269v3.401l-13.91-4.28v-3.39l13.91 4.269zM10.929 9.457v-6.43l7.242.908c-1.202 2.265-1.984 4.428-2.666 6.474l-4.576-.952zm4.284 1.846a66.016 66.016 0 00-1.01 3.497L7.12 13.025l3.456-2.685 4.636.963zm-8.527.874C7.25 9.496 8.342 5.513 9.991 3.47v6.139l-3.305 2.568zm3.68 5.69l-3.057-.766a.227.227 0 01-.145-.108.226.226 0 01-.024-.18l.282-1.055a.235.235 0 01.284-.166l3.056.766a.226.226 0 01.145.108.226.226 0 01.025.18l-.283 1.055a.234.234 0 01-.283.166zm8.988-7.365L16.95 9.9a.227.227 0 01-.145-.109.227.227 0 01-.024-.18l.207-.775a.235.235 0 01.284-.166l2.405.602a.226.226 0 01.145.109.226.226 0 01.024.18l-.207.775a.235.235 0 01-.284.166z" fill="#3ED182"/></svg>