<svg width="32" height="32" fill="none" xmlns="http://www.w3.org/2000/svg"><path d="M23.948 20.579a.423.423 0 00-.186 0h.186z" fill="#3ED182"/><g clip-path="url(#clip0_2297_4505)" fill="#3ED182"><path d="M3.559 10.668h11.68v1.523H3.558v-1.523zm11.679 2.539H3.558v3.555h11.68v-3.555zm-6.855 2.031H5.59a.508.508 0 010-1.015h2.793a.508.508 0 110 1.015zm4.824 0h-2.793a.508.508 0 110-1.015h2.793a.508.508 0 110 1.015z"/><path d="M18.308 8.128c-.04.002-8.191 0-10.18.001v1.524h8.126v8.124H8.129v6.094H23.87V13.207a5.594 5.594 0 01-5.563-5.08zm0-1.014a5.584 5.584 0 012.356-4.063H10.16c-1.12 0-2.031.91-2.031 2.031v2.031l10.18.001zM16.762 5.59h-2.54a.508.508 0 110-1.016h2.54a.508.508 0 010 1.016zM8.129 26.918c0 1.12.91 2.031 2.031 2.031h11.68c1.12 0 2.031-.91 2.031-2.031v-2.031H8.13v2.031zm6.601-.508h2.54a.508.508 0 010 1.016h-2.54a.508.508 0 010-1.016z"/><path d="M23.871 3.05a4.57 4.57 0 100 9.141 4.57 4.57 0 000-9.14zm2.264 3.597l-2.667 2.666a.508.508 0 01-.718 0l-1.142-1.142a.508.508 0 01.718-.719l.783.784 2.307-2.307a.508.508 0 01.718.718z"/></g><defs><clipPath id="clip0_2297_4505"><path fill="#fff" transform="translate(3 3)" d="M0 0h26v26H0z"/></clipPath></defs></svg>