<svg width="26" height="26" fill="none" xmlns="http://www.w3.org/2000/svg"><path d="M23.664 4.063H2.336A2.339 2.339 0 000 6.397v13.204a2.339 2.339 0 002.336 2.335h21.328A2.339 2.339 0 0026 19.602V6.398a2.339 2.339 0 00-2.336-2.335zM8.125 11.171A1.83 1.83 0 016.297 13H5.078a1.83 1.83 0 01-1.828-1.828V9.953a1.83 1.83 0 011.828-1.828h1.219a1.83 1.83 0 011.828 1.828v1.219zm10.446 4.15a.813.813 0 01-.638-1.316c.228-.29.348-.637.348-1.006s-.12-.717-.348-1.006a.813.813 0 011.276-1.006c.45.57.697 1.285.697 2.012a3.26 3.26 0 01-.697 2.012.81.81 0 01-.638.31zm2.622 1.746a.81.81 0 01-1.148.062.812.812 0 01-.062-1.147A4.46 4.46 0 0021.125 13a4.46 4.46 0 00-1.142-2.983.813.813 0 011.21-1.085A6.082 6.082 0 0122.75 13a6.08 6.08 0 01-1.557 4.068z" fill="#3ED182"/></svg>