<svg width="16" height="16" fill="none" xmlns="http://www.w3.org/2000/svg"><path d="M15.399 11.178l-3.935-1.761a1 1 0 00-.98.106l-2.067 1.762a.327.327 0 01-.309.018c-1.353-.654-2.754-2.044-3.407-3.381a.325.325 0 01.015-.308l1.767-2.1a1 1 0 00.107-.978L4.824.605a1 1 0 00-1.04-.599A4.354 4.354 0 000 4.333C0 10.767 5.233 16 11.667 16a4.354 4.354 0 004.326-3.785 1 1 0 00-.594-1.037zm-.065.954a3.686 3.686 0 01-3.667 3.201c-6.065 0-11-4.935-11-11A3.686 3.686 0 013.868.666h.04a.333.333 0 01.306.208l1.76 3.928a.333.333 0 01-.02.3l-1.766 2.1-.024.033a1 1 0 00-.065.98c.724 1.482 2.218 2.964 3.717 3.688a1 1 0 00.982-.072l.031-.024 2.07-1.76a.327.327 0 01.297-.022l3.934 1.763a.333.333 0 01.204.344z" fill="#01B3FF"/><path d="M15.334 12.132a3.686 3.686 0 01-3.667 3.201c-6.065 0-11-4.935-11-11A3.686 3.686 0 013.868.666h.04a.333.333 0 01.306.208l1.76 3.928a.333.333 0 01-.02.3l-1.766 2.1-.024.033a1 1 0 00-.065.98c.724 1.482 2.218 2.964 3.717 3.688a1 1 0 00.982-.072l.031-.024 2.07-1.76a.327.327 0 01.297-.022l3.934 1.763a.333.333 0 01.204.344z" fill="#01B3FF"/></svg>