<svg width="9" height="8" fill="none" xmlns="http://www.w3.org/2000/svg"><path d="M3.892 7.538a.324.324 0 01-.238-.098.324.324 0 01-.098-.238v-2.73H.868a.324.324 0 01-.238-.098.341.341 0 01-.098-.252v-.728c0-.103.033-.182.098-.238a.324.324 0 01.238-.098h2.688V.398c0-.103.033-.182.098-.238a.324.324 0 01.238-.098h.812c.103 0 .182.033.238.098a.296.296 0 01.098.238v2.66h2.688c.103 0 .182.033.238.098a.296.296 0 01.098.238v.728a.341.341 0 01-.098.252.324.324 0 01-.238.098H5.04v2.73a.324.324 0 01-.098.238.296.296 0 01-.238.098h-.812z" fill="#fff"/></svg>