<svg width="24" height="24" fill="none" xmlns="http://www.w3.org/2000/svg"><g clip-path="url(#clip0_2297_2836)"><path d="M12 0a11.999 11.999 0 00-8.484 20.485 11.999 11.999 0 1016.968-16.97A11.998 11.998 0 0012 0z" fill="url(#paint0_linear_2297_2836)"/><path d="M5.43 11.873a584.115 584.115 0 016.998-3.014c3.334-1.386 4.026-1.627 4.478-1.635.1-.002.32.023.465.14.12.098.154.23.17.324.015.094.036.307.02.473-.18 1.897-.963 6.502-1.36 8.627-.167.9-.499 1.2-.82 1.23-.697.064-1.226-.46-1.9-.902-1.056-.693-1.653-1.124-2.678-1.8-1.185-.78-.417-1.21.258-1.91.177-.184 3.248-2.977 3.306-3.23.008-.032.015-.15-.056-.212-.07-.063-.173-.041-.248-.024-.107.024-1.792 1.139-5.062 3.345-.478.329-.911.49-1.301.48-.428-.008-1.253-.241-1.866-.44-.75-.245-1.348-.374-1.296-.789.027-.216.325-.437.893-.663z" fill="#fff"/></g><defs><linearGradient id="paint0_linear_2297_2836" x1="1200" y1="0" x2="1200" y2="2400" gradientUnits="userSpaceOnUse"><stop stop-color="#2AABEE"/><stop offset="1" stop-color="#229ED9"/></linearGradient><clipPath id="clip0_2297_2836"><path fill="#fff" d="M0 0h24v24H0z"/></clipPath></defs></svg>