<svg width="24" height="24" fill="none" xmlns="http://www.w3.org/2000/svg"><path fill-rule="evenodd" clip-rule="evenodd" d="M17.837.618a23.342 23.342 0 00-10.675 0l-.378.088A5.407 5.407 0 004.16 2.194a5.821 5.821 0 00-1.493 2.71 23.914 23.914 0 000 11.226 5.83 5.83 0 001.395 2.607 5.433 5.433 0 002.453 1.52l.519 3.254a.6.6 0 00.124.28.56.56 0 00.242.176.533.533 0 00.557-.116l3.05-2.864c2.29.147 4.59-.045 6.829-.57l.38-.089a5.407 5.407 0 002.623-1.488 5.821 5.821 0 001.492-2.709c.89-3.684.89-7.543 0-11.227a5.822 5.822 0 00-1.493-2.709A5.407 5.407 0 0018.215.707l-.378-.089zm-9.732 4.19a.882.882 0 00-.6.124H7.49a4.644 4.644 0 00-1.119.965c-.268.325-.413.653-.45.97-.023.187-.008.377.045.557l.02.011a14.3 14.3 0 001.175 2.666 15.666 15.666 0 002.268 3.253l.027.04.042.033.026.032.031.028c.935.932 1.98 1.736 3.108 2.391 1.29.738 2.073 1.086 2.544 1.231v.007c.137.045.262.065.389.065.4-.031.78-.202 1.076-.486.364-.337.67-.735.91-1.177v-.008c.224-.445.148-.865-.175-1.15a13.587 13.587 0 00-2.102-1.582c-.5-.285-1.009-.113-1.214.175l-.44.582c-.225.288-.634.248-.634.248l-.01.007C9.954 12.973 9.14 9.732 9.14 9.732s-.038-.44.244-.666l.55-.464c.264-.225.447-.758.164-1.283a13.849 13.849 0 00-1.504-2.204.83.83 0 00-.492-.308l.002.001zM13.26 3.4a.546.546 0 00-.395.172.601.601 0 00-.164.414.6.6 0 00.164.415c.104.11.246.171.395.171 1.413 0 2.586.485 3.514 1.413a5.228 5.228 0 011.093 1.768 5.34 5.34 0 01.327 2.07.615.615 0 00.147.422.544.544 0 00.79.035.6.6 0 00.18-.408 6.563 6.563 0 00-.403-2.544 6.42 6.42 0 00-1.345-2.173l-.011-.012C16.4 3.988 14.942 3.4 13.26 3.4zm-.038 1.927a.546.546 0 00-.395.172.601.601 0 00-.164.414.6.6 0 00.164.415c.104.11.247.172.395.172h.019c1.018.076 1.76.432 2.28 1.017.533.603.809 1.352.787 2.278a.603.603 0 00.155.418.547.547 0 00.391.182.544.544 0 00.399-.162.6.6 0 00.172-.411c.027-1.216-.346-2.265-1.085-3.102v-.002c-.757-.851-1.794-1.302-3.043-1.39l-.02-.002-.055.001zM13.2 7.29a.534.534 0 00-.416.141.585.585 0 00-.191.412.613.613 0 00.15.43.56.56 0 00.398.187c.467.026.766.173.953.372.19.199.33.519.355 1.02a.61.61 0 00.178.418.554.554 0 00.41.156.538.538 0 00.393-.201.593.593 0 00.134-.436c-.035-.703-.245-1.324-.675-1.782-.433-.457-1.022-.68-1.69-.717z" fill="#9D51FF"/></svg>