<svg width="24" height="24" fill="none" xmlns="http://www.w3.org/2000/svg"><path d="M12 0c6.628 0 12 5.372 12 12s-5.372 12-12 12a11.94 11.94 0 01-6.036-1.626L.004 24l1.623-5.962A11.94 11.94 0 010 12C0 5.372 5.372 0 12 0zM7.91 6.36l-.24.01a1.2 1.2 0 00-.446.12 1.56 1.56 0 00-.353.273c-.144.136-.225.253-.313.367a3.276 3.276 0 00-.68 2.014c.003.588.157 1.16.397 1.696.49 1.082 1.298 2.228 2.364 3.29.257.256.509.512.78.751a11.339 11.339 0 004.608 2.455l.681.105c.222.012.444-.005.668-.016a2.4 2.4 0 001-.277c.156-.081.31-.17.459-.264 0 0 .05-.034.15-.108.162-.12.261-.205.396-.346.1-.104.185-.224.252-.362.093-.196.187-.569.225-.88.03-.237.02-.367.017-.447-.005-.129-.111-.262-.228-.318l-.698-.313s-1.044-.455-1.683-.746a.599.599 0 00-.21-.049.576.576 0 00-.454.153c-.006-.003-.087.066-.954 1.117a.42.42 0 01-.442.156 1.686 1.686 0 01-.23-.08c-.148-.062-.2-.086-.302-.129a7.2 7.2 0 01-1.89-1.204c-.15-.132-.291-.276-.435-.415a7.561 7.561 0 01-1.224-1.521l-.071-.114a1.202 1.202 0 01-.122-.246c-.046-.177.073-.318.073-.318s.291-.32.427-.492c.132-.168.244-.332.316-.448.141-.228.186-.462.111-.643a98.152 98.152 0 00-1.041-2.45c-.071-.16-.281-.275-.472-.298a3.995 3.995 0 00-.194-.02 3.598 3.598 0 00-.484.005l.242-.008z" fill="#000"/><path d="M12 0c6.628 0 12 5.372 12 12s-5.372 12-12 12a11.94 11.94 0 01-6.036-1.626L.004 24l1.623-5.962A11.94 11.94 0 010 12C0 5.372 5.372 0 12 0zM7.91 6.36l-.24.01a1.2 1.2 0 00-.446.12 1.56 1.56 0 00-.353.273c-.144.136-.225.253-.313.367a3.276 3.276 0 00-.68 2.014c.003.588.157 1.16.397 1.696.49 1.082 1.298 2.228 2.364 3.29.257.256.509.512.78.751a11.339 11.339 0 004.608 2.455l.681.105c.222.012.444-.005.668-.016a2.4 2.4 0 001-.277c.156-.081.31-.17.459-.264 0 0 .05-.034.15-.108.162-.12.261-.205.396-.346.1-.104.185-.224.252-.362.093-.196.187-.569.225-.88.03-.237.02-.367.017-.447-.005-.129-.111-.262-.228-.318l-.698-.313s-1.044-.455-1.683-.746a.599.599 0 00-.21-.049.576.576 0 00-.454.153c-.006-.003-.087.066-.954 1.117a.42.42 0 01-.442.156 1.686 1.686 0 01-.23-.08c-.148-.062-.2-.086-.302-.129a7.2 7.2 0 01-1.89-1.204c-.15-.132-.291-.276-.435-.415a7.561 7.561 0 01-1.224-1.521l-.071-.114a1.202 1.202 0 01-.122-.246c-.046-.177.073-.318.073-.318s.291-.32.427-.492c.132-.168.244-.332.316-.448.141-.228.186-.462.111-.643a98.152 98.152 0 00-1.041-2.45c-.071-.16-.281-.275-.472-.298a3.995 3.995 0 00-.194-.02 3.598 3.598 0 00-.484.005l.242-.008z" fill="url(#paint0_linear_2297_2841)"/><defs><linearGradient id="paint0_linear_2297_2841" x1="1200" y1="2400" x2="1200" y2="0" gradientUnits="userSpaceOnUse"><stop stop-color="#1FAF38"/><stop offset="1" stop-color="#60D669"/></linearGradient></defs></svg>